<svg viewBox="0 0 1743 902" xmlns="http://www.w3.org/2000/svg"><path d="M1718.5 196.07c-17.36-40.5-41.18-79.98-75.22-110.95-45.61-38.12-95.64-66.03-152.48-77.6-72.15-14.29-150.77-5.1-211.36 28.93 0 0-1.53.85-2.72.34s5.65-14.57 8.37-22.06c.68-1.36 3.36-5.26-.88-5.85-31.32 12.93-68.75 11.23-104.15 14.29l-130.02 2.72-153.5.34c-41.52-.34-83.04-.68-124.57-1.7-20.42-2.04-44.41.94-60.92-10.89-2.85-2.04-5.27-9.7-8.85-6.13-13.61 34.04-26.21 69.09-39.82 103.47 0 0 .55 1.4.76 1.62.64.64 7.74 2.13 11.15.09 5.11-19.4 19.4-41.52 39.82-48.67 39.82-15.66 87.13-13.95 132.4-15.32 26.89 0 51.73-1.02 78.28 2.04 12.59 2.72 13.14 17.93 14.64 26.21 3.16 17.47 4.08 149.42 5.11 223.27l-2.04 104.49c-1.36 43.57 0 89.17-3.06 133.42-1.02 14.3-1.02 28.59-7.15 40.84-9.87 19.06-30.97 24.51-51.39 22.46-31.65-1.7-43.56-37.1-56.16-59.22-24.84-55.14-51.39-109.93-72.83-166.43l-66.03-157.92c-27.57-67.05-59.01-136.06-80.45-205.83 0 0-.24-2.66-1.7-2.38-7 1.34-13.18-.22-13.96 1.9-2.28 6.15-11.96 43.22-48.19 139.27l-37.44 101.43-35.4 95.64c-26.55 67.39-51.22 135.89-82.36 201.49-12.82 27-24.17 72.16-63.65 74.88-50.03-1.03-89.51-27.57-128.65-54.12-33.01-26.55-59.9-57.52-79.98-92.24-20.08-38.12-30.29-80.32-35.06-124.91-3.74-79.64 10.89-152.82 50.37-215.44C169.91 72.88 238.66 32.04 311.5 23.53c56.16-3.74 108.23 7.49 155.54 28.25 13.95 7.49 30.36 14.17 39.82 29.27 7.27 11.61-1.55 34.58-.68 35.06 1.93 1.05 8.17 1.02 10.89-1.36 9.53-35.74 34.28-92.57 39.89-101.9 1.55-2.58-1.09-3.88-2.79-2.59-18.38 9.19-38.12 17.02-60.58 12.93-26.89-4.08-52.75-11.23-79.64-15.66C322.4-9.49 225.74 5.49 151.54 53.48 79.02 96 29.67 169.18 10.95 245.76-10.49 322.68.74 414.23 38.18 480.95c27.57 51.73 76.58 96.66 127.29 124.23 97 56.5 236.55 46.63 342.05 14.98 12.59-4.09 34.11-9.03 37.78-12.93 2.55-2.72 21.1-72.5 29.27-109.59-1.02-1.7-3.74-.68-5.79-1.02-6-.37-5.5 4.06-9.19 14.3-18.93 46.22-65.35 87.13-112.31 102.78-13.27 3.75-30.97 11.91-43.91 1.36-2.72-3.74-2.72-9.53-1.7-14.3 15.66-60.92 40.5-118.44 64.67-175.96l5.1-7.83c3.06-3.06 7.15-3.74 11.23-4.42 69.77-5.11 143.63-11.23 213.74-3.4 6.81 3.06 8.17 11.23 11.23 17.02 15.66 40.5 32.68 80.66 46.63 121.85 3.4 11.91 8.17 23.48 7.83 37.1-1.02 9.87-9.19 19.06-18.04 23.14-8.85 3.75-27.31 5.11-28.59 5.79s0 8.85 3.06 11.57c39.48-3.74 79.98-7.49 120.82-9.53 89.17-2.72 176.64-4.08 265.13 3.41l2.04-.68c1.02-3.74 1.41-10.6-.68-10.89-24.85-1.02-48.67-4.42-69.77-14.98-28.93-18.04-22.8-53.09-26.21-83.39l-1.02-96.66 1.36-100.4 2.04-124.57.34-4.43c1.02-42.54 3.38-123.22 5.45-128.99 2.72-5.11 9.19-2.72 13.95-4.08 64.67-2.04 134.62-8.86 194.18 12.24l3.91 3.07c-18.38 12.25-36.42 29.61-51.39 45.95-56.5 67.05-93.26 144.65-83.73 237.57 6.46 93.6 58.54 174.94 134.1 233.14 48.67 32.33 101.08 55.47 160.65 60.92 69.77 7.83 136.14-7.49 192.3-40.84 73.18-41.86 125.25-115.72 147.37-191.96 22.82-67.42 15.34-151.15-10.87-214.45zM682.1 375.09l-4.08 2.38c-45.61 6.47-92.92 7.49-141.25 6.47-16.68-1.36-34.72 0-50.03-5.45l-.68-2.72c24.17-77.26 53.44-152.48 83.73-227.02 2.72-5.45 6.85-16.46 8.51-16.34 1.23.09 2.38 2.38 2.38 2.38 32.67 75.22 67.39 149.76 98.02 225.65 1.36 4.78 5.1 9.55 3.4 14.65zm983.28 61.26c-11.91 46.97-33.36 90.19-69.43 126.61-41.86 38.46-93.26 59.9-152.48 54.12-61.94-3.41-114.7-29.61-162.35-67.73-30.29-25.19-55.48-55.48-73.85-87.81-40.85-69.43-53.09-158.26-39.14-242.33 7.49-39.14 22.39-74.94 46.97-106.87 11.82-15.36 19.27-21.35 28.59-28.25 1.09-.8 2.38 0 2.72 1.02 1.62 10.71-4.08 26.89-5.79 40.84 3.06 1.7 11.02.45 11.31.13.63-.7.57-2.61.57-2.61 3.4-20.42 8.54-39.38 15-58.44 25.19-17.02 53.78-26.55 83.39-33.01 42.2-8.85 90.19-4.43 128.31 10.89 80.32 31.31 146.01 106.87 174.6 186.85 19.4 63.31 30.29 139.55 11.58 206.59zM191.04 681.41l38.8 40.5 110.62 108.57 18.38 17.36c1.36 1.02 2.72-.34 3.06-1.7.34-42.88 1.95-86.59.34-128.65-.46-11.98-2.04-27.23-16-30.63-5.1-2.38-14.86-3.22-16-4.43-2.4-2.53 4.08-2.04 6.13-2.38 20.42 1.7 40.16 3.75 60.92 2.72.34.34 0 1.03.34 1.7-2.72 1.7-6.47 1.02-9.53 2.38-11.23 3.74-11.57 16.33-13.27 26.21-4.08 60.92-4.76 121.85-2.38 184.47-.68 1.36-2.38 1.36-3.74 1.02-27.57-40.5-65.01-73.52-100.74-108.57l-77.26-72.5c-1.36-.34-2.38.34-2.72 1.36.68 50.71-2.04 105.17 1.36 155.54 5.79 14.98 22.46 16.68 36.08 19.74 1.02.34.34 1.36.68 2.38l-1.36 1.03c-22.8-2.04-47.65-2.04-70.79-.34-1.02-.68-1.7-1.7-1.02-2.72 7.15-2.72 16.68-2.38 20.42-10.55 4.08-16.34 2.38-33.69 3.74-51.39-.68-39.82 2.38-81.34-.68-120.82-1.7-9.19-5.75-18.09-14.29-23.49-5.71-3.6-10.88-4.42-13.61-6.46-.34-.68 0-1.7.68-2.04 13.25 2.03 28.22 1.35 41.84 1.69zm-60.24 1.36c.13 2.95-10.27 4.01-12.59 4.09-5.45 1.36-11.91 2.04-14.98 8.17-7.49 17.7-5.79 39.48-6.81 59.9-.68 40.5 1.02 83.73 2.72 123.89 1.02 4.43 2.72 9.53 7.49 11.91 6.81 2.72 14.64 3.4 22.8 3.74 1.02 1.36-.68 2.72-1.7 3.07-28.59-1.03-57.52-3.07-85.77.34-1.02 0-2.04-.34-2.38-1.36s.68-2.72 2.04-2.72c10.89-1.36 24.51-.34 29.61-11.91 4.76-13.61 3.74-29.61 4.76-44.24l-2.38-116.74c-2.04-10.21 0-22.46-9.53-28.93-7.15-4.09-16.34-4.43-24.5-6.13-1.02-.34-.34-1.36-.68-2.04l1.36-1.03c28.25 1.36 57.52 2.04 85.09-1.36 2.04-.01 4.77-1.03 5.45 1.35zm451.3 4.76h131.38c34.47 1.35 42.01-3.14 43.9-2.93 1.82.21 1.36 1.04.27 3.6-.71 1.66-7.08 18.73-8.44 29.96-.27 1.49-1.64 1.36-2.66.68-1.7-5.1 4.7-12.25-1.77-16-22.12-11.57-51.73-7.15-77.26-6.46 0 0-1.25.77-2.04 2.72s-2.04 108.91-1.02 162.01c1.36 9.87-1.36 22.8 9.53 27.57 6.81 3.41 14.63 4.08 22.12 4.76 1.36.34 1.02 2.04.68 2.72-4.42 1.7-9.87.34-14.63 0-23.83-5.11-49.01 0-72.49 3.06-1.02-.34-1.7-.68-2.38-1.36.34-2.38 3.06-2.04 4.76-2.72 9.87-3.41 24.83-5.78 27.57-14.64 1.38-4.48 3.06-105.85 1.7-159.97-1.02-7.83-1.36-15.99-4.08-23.14l-1.36-1.02c-25.87-1.02-52-2.85-74.88 4.76-6.14 2.04-10.01 10.08-12.74 16.55-1.12 3.5-4.11 2.41-3.6 1.15 6.71-16.57 11.68-36.62 13.27-36.76 1.37-.09 4.19 6.52 24.17 5.46zm-42.88-3.4c-1.7 14.64-2.72 30.63 1.36 44.93-1.02 1.36-2.58 1.11-3.4 0-2.72-16-14.98-31.65-30.63-36.76-20.76-7.83-48.33-5.45-64.33 10.89-10.55 11.57-12.59 31.99-5.45 46.29 15.32 23.48 42.88 26.55 66.03 35.74 21.44 7.14 46.63 26.55 48.67 51.39 2.38 22.12-8.51 41.86-27.23 53.1-27.23 16.68-67.39 10.55-98.02 5.1-2.04.34-3.4 2.04-4.08 4.08.34 1.02-.34 2.38-1.36 2.38-3.06 0-3.4-2.72-3.06-5.11-1.02-17.36-7.49-33.01-10.55-49.35.64-2.37 2.72-.68 3.4 0 3.4 18.04 18.04 36.42 36.76 40.16 21.78 5.79 53.77 12.25 72.83-4.76 12.25-9.87 12.59-26.89 10.21-40.84-8.17-31.32-42.54-35.06-67.05-45.27-20.08-7.15-44.59-21.45-49.01-44.93-3.4-18.38 3.4-35.74 16.34-49.35 24.51-23.14 61.07-21.03 92.38-14.57 8.2 1.55 13.16-5.32 14.83-4.84 1.66.5 1.36 1.72 1.36 1.72zm373.29 3.54l134.78.06c17.58.34 22.47-1.26 25.46-2.65.87-.41 1.36 1.36 1.36 1.36-3.74 10.21-6.69 19.46-8.71 31.65-.17 1.03-.59 2.3-2.72 1.77 0 0-.51-.08-1.02-1.02-.82-1.49 5.11-12.25-1.36-15.66-22.12-10.55-51.73-7.83-77.26-6.46-2.04.68-2.72 3.4-2.72 5.45l-1.36 101.77c1.02 26.21-1.7 54.46 3.4 78.96 6.13 10.21 18.72 10.21 29.27 11.57 1.36.34 1.36 2.04.34 2.72l-2.04.68c-28.25-4.09-58.2-2.72-85.77 2.04-2.44.07-2.04-1.7-1.02-2.38 10.89-3.41 28.05-7.44 31.31-13.96 1.06-2.12 1.7-23.83 1.7-23.83l1.02-104.49c-1.36-19.4.34-39.14-4.42-57.18l-1.7-1.36c-51.92.63-74.81-4.66-82.37 8.17-4.91 8.33-6.43 13.58-7.83 13.27-.68.34-1.55-.77-1.55-1.45 7.07-15.43 11.9-33.88 13.13-34.29 1.43-.45 3.79 5.73 40.08 5.26zm439.09-.13l107.96.2 48.11-.08c6.84.38 13.92-1.69 16.03-2.45 1.77-.63 3.93-1.22 2.64 1.23-3.41 10.55-6.95 20.35-7.97 31.93-.68 1.02-1.53 1.72-3.06.41-1.34-1.15 2.48-10.02 1.02-13.95-2.29-6.18-23.48-9.19-37.1-9.87-14.98-.68-30.29 0-44.25 1.36l-2.38 3.06c-2.04 53.44-2.04 110-1.03 163.43 2.04 9.87-.68 22.46 9.87 27.57 6.81 3.4 15.31 3.4 23.14 5.11 1.02 2.04-1.36 2.72-2.38 3.06-28.25-4.42-58.2-2.38-85.77 2.04-.68 0-1.7-.34-1.7-1.36v-1.02c13.26-3.48 28.63-7.85 31.32-13.96 2.68-6.1 2.04-74.54 3.06-111.63-.34-23.82.68-51.11-4.08-73.92-2.38-4.77-9.19-2.04-13.95-3.4-22.46 0-53.82-1.32-67.05 6.8-5.48 3.36-8.74 16.06-11.03 16.2-1.1.07-1.62-.56-1.23-1.36 9.47-18.95 11.84-33.07 12.59-33.5 1.6-.89 6.74 5.19 27.24 4.1zm-493.81-2.05c.27 4.37-8.9 2.57-12.25 3.75-5.1 1.02-10.89 2.38-14.29 7.49-8.51 17.7-5.11 40.5-7.15 60.58-.34 42.21-.68 84.07 2.38 125.59 1.02 4.08 3.4 8.51 7.49 10.55 6.81 2.72 14.98 3.06 22.46 3.74 1.02 1.36 0 3.07-1.36 3.4-28.93-1.7-57.86-3.06-87.13 0-.68-.68-1.02-.68-1.36-1.7-.34-2.04 1.7-2.38 3.06-2.38 9.87-.68 21.14-.75 26.55-7.83 8.03-10.51 6.13-32.33 6.81-49.35 0-41.18 0-80.32-2.04-120.82-2.04-8.85-.68-19.4-9.53-24.84-7.15-3.07-15.31-4.77-23.82-5.45-1.9-.14-2.39-1.65-1.02-2.72 1.08-.84 56.28 2.24 87.47-1.7 1.71-.23 3.39-.01 3.73 1.69zm840.01 3.74l-5.79 36.77c-.49.68-1.75.84-2.38.34-2.18-1.75.1-7.48-.34-9.53.34-7.49-2.04-15.31-9.19-18.38-22.12-7.49-51.25-6.97-72.15-6.12-7.34.3-16 1.36-20.76 6.47-3.4 27.91-2.72 55.48-2.72 84.75 0 1.36 1.02 3.06 2.38 3.4 25.19.34 51.05 1.02 75.56-2.04 12.25 0 14.31-18.66 16.27-21.52.41-2.64 2.83-.61 2.79.42-1.02 19.4-1.36 38.8-.34 58.2 0 1.02-.87 1.93-1.7 2.04s-2.04-1.02-2.04-1.02c-1.02-9.87-2.72-20.76-12.25-25.87-25.87-2.72-53.43-4.42-78.96-1.7l-1.7 2.04c-.68 29.95-2.04 59.56 3.06 88.15 10.21 8.16 25.18 5.44 38.12 7.15 21.44 1.02 41.52-1.02 58.54-9.87 12.25-7.49 20.76-19.74 25.53-32.33.68-.34 1.02-.68 1.7-.34l1.36 1.7c-3.74 16-7.83 31.65-14.3 46.29l-2.04 1.7c-52.75-1.02-106.53-1.7-159.28 1.7-2.58-.48-2.44-2.24-.68-3.06 7.15-2.04 16.92-2.79 20.08-10.21s4.76-65.35 5.45-99.05c.34-27.57-.34-54.46-2.38-80.66-.16-2.94-1.36-12.93-8.17-14.98-4.42-2.38-12.81-3.67-13.27-5.45-.74-2.87 3.41-2.04 5.45-1.7l107.21-.34c15.65 0 45.94-1.63 46.97-1.02 1.46.89-.03 4.07-.03 4.07zm-536.8-1.56c.32 2.75-2.76 2.01-4.28 2.31-8.35 1.69-22.54 2.66-25.6 14.57-4.42 41.18-3.06 85.43-2.38 127.97-.68 21.44 12.93 41.86 32.33 49.69 29.27 13.27 70.11 8.17 95.64-10.21 17.02-13.27 16.68-34.37 19.74-53.43 3.06-33.7 4.76-68.75 1.7-102.79-1.42-8.6-.38-17.88-10.55-21.78-6.07-2.33-10.46-2.09-15.91-2.09-2.33-1.07-1.79-2.34-1.11-3.02 20.9-1.95 59.15-.72 61.6-.68 2.46.04 2.33 2.56-.95 2.11-7.49 1.36-19.05 2.25-20.15 8.44-.75 4.2-2.04 56.5-3.74 87.13-4.77 35.74 1.7 78.96-34.03 99.72-38.8 17.69-97.68 21.44-130.7-11.23-17.36-14.29-15.31-38.12-15.31-59.22.68-39.14 1.7-80.66-4.08-118.1-4.77-6.47-19.08-4.56-20.42-7.49-1.35-2.92 2.25-2.25 4.77-2.38 24.84.68 47.99 1.02 72.49-.34l.94.82z" fill="#fff"/></svg>